<svg xmlns="http://www.w3.org/2000/svg" width="960" height="320" viewBox="0 0 960 320" role="img" aria-label="Frameworks chapter illustration showing four islands connected by a bridge line">
  <rect width="960" height="320" rx="28" fill="#f5faf8"/>
  <path d="M0 232 C162 200, 318 200, 474 230 C628 258, 788 258, 960 226 L960 320 L0 320 Z" fill="#d8eee6"/>
  <path d="M142 170 C258 154, 380 154, 498 168 C616 182, 740 180, 836 162" fill="none" stroke="#0b7a5c" stroke-width="5" stroke-linecap="round"/>
  <g fill="#ffffff" stroke="#9fd6c3" stroke-width="3">
    <circle cx="188" cy="170" r="36"/>
    <circle cx="402" cy="162" r="36"/>
    <circle cx="612" cy="172" r="36"/>
    <circle cx="804" cy="160" r="36"/>
  </g>
  <g fill="#0ea27a">
    <rect x="176" y="156" width="24" height="24" rx="6"/>
    <path d="M392 176h20v-28h-20z"/>
    <path d="M602 180h24l-12-24z"/>
    <circle cx="804" cy="160" r="12"/>
  </g>
</svg>
