<svg xmlns="http://www.w3.org/2000/svg" width="960" height="320" viewBox="0 0 960 320" role="img" aria-label="Guides chapter illustration showing a compass, route markers, and layered mist ridges">
  <title>Guides chapter illustration</title>
  <desc>A jade compass and dotted route sit above layered landscape bands, matching the calm mountain palette of the homepage hero.</desc>
  <defs>
    <linearGradient id="panelSky" x1="0" y1="0" x2="0" y2="1">
      <stop offset="0%" stop-color="#edf8f4"/>
      <stop offset="58%" stop-color="#f7fbf8"/>
      <stop offset="100%" stop-color="#faf6ee"/>
    </linearGradient>
    <linearGradient id="ridgeFar" x1="0" y1="0" x2="0" y2="1">
      <stop offset="0%" stop-color="#d5ebe3"/>
      <stop offset="100%" stop-color="#bfddd1"/>
    </linearGradient>
    <linearGradient id="ridgeMid" x1="0" y1="0" x2="0" y2="1">
      <stop offset="0%" stop-color="#b7dbcd"/>
      <stop offset="100%" stop-color="#8fc7b5"/>
    </linearGradient>
    <linearGradient id="ridgeNear" x1="0" y1="0" x2="0" y2="1">
      <stop offset="0%" stop-color="#31584d"/>
      <stop offset="100%" stop-color="#17332e"/>
    </linearGradient>
    <linearGradient id="mistBand" x1="0" y1="0" x2="1" y2="0">
      <stop offset="0%" stop-color="#ffffff" stop-opacity="0"/>
      <stop offset="18%" stop-color="#f5fbf8" stop-opacity="0.68"/>
      <stop offset="54%" stop-color="#edf8f4" stop-opacity="0.8"/>
      <stop offset="100%" stop-color="#ffffff" stop-opacity="0"/>
    </linearGradient>
    <filter id="softShadow" x="-10%" y="-10%" width="120%" height="120%">
      <feDropShadow dx="0" dy="12" stdDeviation="12" flood-color="#17332e" flood-opacity="0.12"/>
    </filter>
  </defs>

  <rect width="960" height="320" rx="30" fill="url(#panelSky)"/>
  <circle cx="748" cy="86" r="34" fill="#e4f5ed" opacity="0.96"/>
  <circle cx="748" cy="86" r="58" fill="#cbe8dc" opacity="0.34"/>
  <path d="M0 214 C106 190, 218 190, 338 214 C470 240, 602 240, 736 214 C826 196, 902 194, 960 202 L960 320 L0 320 Z" fill="url(#ridgeFar)"/>
  <path d="M0 238 C132 214, 246 216, 378 242 C510 268, 634 268, 760 238 C844 218, 912 220, 960 226 L960 320 L0 320 Z" fill="url(#ridgeMid)" opacity="0.92"/>
  <path d="M0 272 C138 252, 274 254, 406 280 C540 306, 680 304, 960 266 L960 320 L0 320 Z" fill="url(#ridgeNear)"/>
  <path d="M52 226 C192 212, 312 214, 432 236 C552 258, 700 256, 876 222" fill="none" stroke="url(#mistBand)" stroke-width="18" stroke-linecap="round"/>
  <path d="M82 258 C220 248, 360 252, 496 274 C642 296, 768 294, 896 266" fill="none" stroke="url(#mistBand)" stroke-width="14" stroke-linecap="round" opacity="0.9"/>
  <g filter="url(#softShadow)">
    <circle cx="252" cy="148" r="84" fill="#ffffff" stroke="#a8d6c4" stroke-width="4"/>
    <circle cx="252" cy="148" r="24" fill="#0ea27a" opacity="0.16"/>
    <path d="M252 80v136M184 148h136" stroke="#c6dcd3" stroke-width="4"/>
    <path d="M252 148 306 102" stroke="#0b7a5c" stroke-width="10" stroke-linecap="round"/>
    <path d="M252 148 218 204" stroke="#3fd9a8" stroke-width="10" stroke-linecap="round"/>
    <path d="M436 210 C520 182, 608 168, 690 168 C758 168, 814 152, 874 110" fill="none" stroke="#0ea27a" stroke-width="5" stroke-linecap="round" stroke-dasharray="8 12"/>
    <g fill="#ffffff" stroke="#0ea27a" stroke-width="4">
      <circle cx="520" cy="188" r="15"/>
      <circle cx="636" cy="168" r="15"/>
      <circle cx="784" cy="136" r="15"/>
    </g>
  </g>
</svg>
