<svg xmlns="http://www.w3.org/2000/svg" width="960" height="320" viewBox="0 0 960 320" role="img" aria-label="Quickstart chapter illustration showing a path, milestones, and a sunrise">
  <defs>
    <linearGradient id="bg" x1="0" y1="0" x2="1" y2="1">
      <stop offset="0%" stop-color="#eef7f4"/>
      <stop offset="100%" stop-color="#f9f7f2"/>
    </linearGradient>
    <linearGradient id="ridge" x1="0" y1="0" x2="0" y2="1">
      <stop offset="0%" stop-color="#bce7d9"/>
      <stop offset="100%" stop-color="#5bb99b"/>
    </linearGradient>
  </defs>
  <rect width="960" height="320" rx="28" fill="url(#bg)"/>
  <circle cx="778" cy="86" r="34" fill="#d6f3e7"/>
  <path d="M0 230 C140 198, 276 204, 392 238 C532 278, 694 276, 960 224 L960 320 L0 320 Z" fill="url(#ridge)" opacity="0.92"/>
  <path d="M146 266 C238 202, 340 176, 450 182 C568 188, 652 154, 758 92" fill="none" stroke="#0ea27a" stroke-width="14" stroke-linecap="round" opacity="0.2"/>
  <path d="M146 266 C238 202, 340 176, 450 182 C568 188, 652 154, 758 92" fill="none" stroke="#0b7a5c" stroke-width="4" stroke-linecap="round"/>
  <g fill="#ffffff" stroke="#0ea27a" stroke-width="4">
    <circle cx="238" cy="206" r="15"/>
    <circle cx="450" cy="182" r="15"/>
    <circle cx="618" cy="164" r="15"/>
  </g>
  <g fill="#0b7a5c">
    <rect x="226" y="200" width="24" height="4" rx="2"/>
    <rect x="438" y="176" width="24" height="4" rx="2"/>
    <rect x="606" y="158" width="24" height="4" rx="2"/>
  </g>
</svg>
