<svg xmlns="http://www.w3.org/2000/svg" width="960" height="320" viewBox="0 0 960 320" role="img" aria-label="Tools chapter illustration showing modular tool cards connected by a calm workflow line">
  <rect width="960" height="320" rx="28" fill="#eef7f4"/>
  <path d="M124 188 H834" fill="none" stroke="#0ea27a" stroke-width="5" stroke-linecap="round" stroke-dasharray="10 14" opacity="0.45"/>
  <g>
    <rect x="120" y="112" width="180" height="112" rx="24" fill="#ffffff" stroke="#b9ddd0"/>
    <rect x="390" y="86" width="180" height="112" rx="24" fill="#ffffff" stroke="#b9ddd0"/>
    <rect x="660" y="112" width="180" height="112" rx="24" fill="#ffffff" stroke="#b9ddd0"/>
  </g>
  <g fill="#0b7a5c">
    <rect x="152" y="142" width="92" height="10" rx="5"/>
    <rect x="152" y="168" width="120" height="8" rx="4" opacity="0.6"/>
    <rect x="422" y="116" width="92" height="10" rx="5"/>
    <rect x="422" y="142" width="120" height="8" rx="4" opacity="0.6"/>
    <rect x="692" y="142" width="92" height="10" rx="5"/>
    <rect x="692" y="168" width="120" height="8" rx="4" opacity="0.6"/>
  </g>
  <g fill="#3fd9a8">
    <circle cx="300" cy="188" r="8"/>
    <circle cx="570" cy="188" r="8"/>
    <circle cx="660" cy="188" r="8"/>
  </g>
</svg>
