<svg xmlns="http://www.w3.org/2000/svg" width="880" height="640" viewBox="0 0 880 640" role="img" aria-label="Mount Fuji above layered cedar forest and drifting mist in a calm parchment-and-jade palette">
  <title>Mount Fuji above cedar forest and mist</title>
  <desc>A light chapter-style Fuji landscape with parchment sky, layered green ridges, mist bands, and cedar silhouettes for the homepage hero.</desc>
  <defs>
    <linearGradient id="panelSky" x1="0" y1="0" x2="0" y2="1">
      <stop offset="0%" stop-color="#edf8f4"/>
      <stop offset="58%" stop-color="#f7fbf8"/>
      <stop offset="100%" stop-color="#faf6ee"/>
    </linearGradient>
    <linearGradient id="ridgeFar" x1="0" y1="0" x2="0" y2="1">
      <stop offset="0%" stop-color="#d5ebe3"/>
      <stop offset="100%" stop-color="#bfddd1"/>
    </linearGradient>
    <linearGradient id="ridgeMid" x1="0" y1="0" x2="0" y2="1">
      <stop offset="0%" stop-color="#b7dbcd"/>
      <stop offset="100%" stop-color="#8fc7b5"/>
    </linearGradient>
    <linearGradient id="ridgeNear" x1="0" y1="0" x2="0" y2="1">
      <stop offset="0%" stop-color="#31584d"/>
      <stop offset="100%" stop-color="#17332e"/>
    </linearGradient>
    <linearGradient id="mistBand" x1="0" y1="0" x2="1" y2="0">
      <stop offset="0%" stop-color="#ffffff" stop-opacity="0"/>
      <stop offset="18%" stop-color="#f5fbf8" stop-opacity="0.68"/>
      <stop offset="54%" stop-color="#edf8f4" stop-opacity="0.8"/>
      <stop offset="100%" stop-color="#ffffff" stop-opacity="0"/>
    </linearGradient>
    <linearGradient id="fujiBody" x1="0" y1="0" x2="0" y2="1">
      <stop offset="0%" stop-color="#eef4f2"/>
      <stop offset="58%" stop-color="#c7d7d4"/>
      <stop offset="100%" stop-color="#93a8a8"/>
    </linearGradient>
    <linearGradient id="fujiSnow" x1="0" y1="0" x2="0" y2="1">
      <stop offset="0%" stop-color="#ffffff"/>
      <stop offset="100%" stop-color="#e5efeb"/>
    </linearGradient>
  </defs>

  <rect width="880" height="640" fill="url(#panelSky)"/>
  <circle cx="664" cy="124" r="72" fill="#cbe8dc" opacity="0.36"/>
  <circle cx="664" cy="124" r="40" fill="#e4f5ed" opacity="0.98"/>

  <path d="M0 398 C112 364, 212 362, 320 398 C432 434, 534 432, 654 396 C746 368, 816 368, 880 378 L880 640 L0 640 Z" fill="url(#ridgeFar)"/>
  <path d="M0 446 C122 404, 236 408, 350 446 C468 486, 584 482, 706 442 C792 414, 846 418, 880 426 L880 640 L0 640 Z" fill="url(#ridgeMid)" opacity="0.92"/>
  <path d="M0 520 C126 470, 258 468, 386 520 C516 572, 652 566, 880 498 L880 640 L0 640 Z" fill="url(#ridgeNear)"/>

  <path d="M256 392 L440 118 L626 392 Z" fill="url(#fujiBody)"/>
  <path d="M380 214 L440 118 L500 216 L534 268 L346 268 Z" fill="url(#fujiSnow)"/>
  <path d="M438 118 L456 170 L424 170 Z" fill="#f7fbf8" opacity="0.78"/>

  <path d="M72 424 C214 404, 352 410, 498 438 C646 466, 756 462, 842 430" fill="none" stroke="url(#mistBand)" stroke-width="24" stroke-linecap="round"/>
  <path d="M108 500 C264 484, 412 490, 566 520 C696 546, 792 542, 860 516" fill="none" stroke="url(#mistBand)" stroke-width="18" stroke-linecap="round" opacity="0.92"/>
  <path d="M178 458 C274 438, 372 438, 474 458" fill="none" stroke="#ffffff" stroke-width="3" stroke-linecap="round" opacity="0.66"/>
  <path d="M548 454 C608 438, 684 438, 752 454" fill="none" stroke="#ffffff" stroke-width="3" stroke-linecap="round" opacity="0.66"/>

  <g fill="#17332e" opacity="0.94">
    <path d="M54 640 l18 -84 l16 -62 l22 146 z"/>
    <path d="M92 640 l18 -74 l16 -92 l24 166 z"/>
    <path d="M136 640 l18 -94 l18 -70 l26 164 z"/>
    <path d="M186 640 l16 -86 l18 -60 l22 146 z"/>
    <path d="M244 640 l18 -104 l20 -76 l28 180 z"/>
    <path d="M612 640 l18 -74 l16 -58 l22 132 z"/>
    <path d="M660 640 l18 -92 l18 -78 l26 170 z"/>
    <path d="M718 640 l18 -110 l20 -74 l28 184 z"/>
    <path d="M786 640 l16 -84 l16 -58 l20 142 z"/>
    <path d="M834 640 l16 -68 l14 -52 l18 120 z"/>
  </g>

  <path d="M318 534 C380 496, 444 486, 522 488 C598 490, 660 506, 724 538" fill="none" stroke="#e4f5ed" stroke-width="12" stroke-linecap="round" opacity="0.68"/>
  <path d="M330 534 C390 500, 448 492, 520 494 C590 496, 650 510, 710 538" fill="none" stroke="#ffffff" stroke-width="4" stroke-linecap="round" opacity="0.92"/>
</svg>
